<?xml version="1.0" encoding="UTF-8" standalone="no"?>
<!-- Created with Inkscape (http://www.inkscape.org/) -->

<svg
   xmlns:dc="http://purl.org/dc/elements/1.1/"
   xmlns:cc="http://creativecommons.org/ns#"
   xmlns:rdf="http://www.w3.org/1999/02/22-rdf-syntax-ns#"
   xmlns:svg="http://www.w3.org/2000/svg"
   xmlns="http://www.w3.org/2000/svg"
   xmlns:sodipodi="http://sodipodi.sourceforge.net/DTD/sodipodi-0.dtd"
   xmlns:inkscape="http://www.inkscape.org/namespaces/inkscape"
   width="210mm"
   height="297mm"
   viewBox="0 0 210 297"
   version="1.1"
   id="svg8"
   inkscape:version="0.92.3 (2405546, 2018-03-11)"
   sodipodi:docname="races.svg">
  <defs
     id="defs2" />
  <sodipodi:namedview
     id="base"
     pagecolor="#ffffff"
     bordercolor="#666666"
     borderopacity="1.0"
     inkscape:pageopacity="0.0"
     inkscape:pageshadow="2"
     inkscape:zoom="0.35"
     inkscape:cx="444.13466"
     inkscape:cy="560"
     inkscape:document-units="mm"
     inkscape:current-layer="layer1"
     showgrid="false"
     inkscape:window-width="958"
     inkscape:window-height="1008"
     inkscape:window-x="953"
     inkscape:window-y="0"
     inkscape:window-maximized="0" />
  <metadata
     id="metadata5">
    <rdf:RDF>
      <cc:Work
         rdf:about="">
        <dc:format>image/svg+xml</dc:format>
        <dc:type
           rdf:resource="http://purl.org/dc/dcmitype/StillImage" />
        <dc:title></dc:title>
      </cc:Work>
    </rdf:RDF>
  </metadata>
  <g
     inkscape:label="Layer 1"
     inkscape:groupmode="layer"
     id="layer1">
    <path
       inkscape:connector-curvature="0"
       id="path825"
       d="m 101.08262,147.53527 c -0.12013,-0.12013 -0.21842,-0.33217 -0.21842,-0.4712 0,-0.2842 11.11147,-21.67218 11.33554,-21.8193 0.33123,-0.21748 0.92163,-0.0631 1.88585,0.49304 1.22297,0.70542 1.39997,0.86753 1.39997,1.28231 0,0.17386 -1.90462,4.01272 -4.2325,8.53082 -2.32786,4.51811 -4.23249,8.23871 -4.23249,8.26801 0,0.0293 1.58307,0.0533 3.51792,0.0533 3.84689,0 3.92862,0.0156 3.91427,0.74664 -0.01,0.48545 -1.05227,2.71691 -1.34653,2.88159 -0.15893,0.089 -2.27187,0.15737 -6.02498,0.19511 -5.31986,0.0535 -5.79762,0.0407 -5.99863,-0.16029 z m 56.64221,0.0605 c -1.9165,-0.0375 -3.51409,-0.0978 -3.55019,-0.13405 -0.19009,-0.19076 -1.23758,-2.70234 -1.2359,-2.96333 0.004,-0.69247 -0.0318,-0.68535 3.83969,-0.75441 l 3.59478,-0.0641 -3.7322,-7.24656 c -5.00561,-9.71903 -4.78358,-9.2613 -4.68427,-9.65695 0.0641,-0.25546 0.37795,-0.50007 1.34164,-1.04571 1.21559,-0.68828 1.6013,-0.81346 1.8921,-0.61411 0.24596,0.16863 11.3416,21.59652 11.3416,21.9029 0,0.1636 -0.0907,0.38814 -0.20155,0.49899 -0.21865,0.21866 -1.01739,0.22584 -8.6057,0.0773 z m -38.70302,-0.59038 c -0.11085,-0.11085 -0.20155,-0.31978 -0.20155,-0.46428 0,-0.1445 1.59528,-3.79091 3.54507,-8.10313 1.94978,-4.31222 3.70893,-8.20386 3.90921,-8.64808 l 0.36416,-0.80768 -0.56705,0.40722 c -0.38996,0.28004 -0.6657,0.38837 -0.88291,0.34685 -0.29744,-0.0569 -0.32107,-0.0186 -0.40545,0.65684 -0.14199,1.13635 -0.52999,1.67941 -1.19991,1.67941 -0.45772,0 -0.65192,-0.3375 -0.63191,-1.0982 0.0219,-0.83479 -0.27859,-1.33664 -0.90874,-1.51736 -1.17066,-0.33574 -2.37563,0.81656 -2.76663,2.64567 -0.0893,0.41788 -0.57193,0.58808 -1.04997,0.37028 -0.88443,-0.40299 -1.08785,-2.59547 -0.37584,-4.05079 0.60589,-1.23838 1.53476,-1.69692 4.02955,-1.98916 1.24238,-0.14553 2.0957,-0.46893 2.31409,-0.87701 0.068,-0.12712 0.0917,-0.46989 0.0525,-0.76171 -0.0637,-0.47486 0.0106,-0.67618 0.70775,-1.91678 0.92135,-1.63972 1.2378,-2.67109 1.0423,-3.39711 -0.23221,-0.86236 -1.1213,-1.16065 -2.04138,-0.68485 -1.18002,0.61022 -2.27756,2.05729 -3.02662,3.99051 -0.3839,0.99077 -0.52511,1.22254 -0.78463,1.28767 -0.45305,0.11371 -0.7066,-0.0367 -2.28555,-1.35637 -1.68638,-1.40938 -1.98834,-1.72836 -1.9869,-2.09893 4.4e-4,-0.15478 0.35502,-0.77202 0.78763,-1.37162 2.37585,-3.29301 2.28144,-6.07799 -0.2053,-6.05554 -1.77566,0.016 -4.03682,1.6729 -5.49355,4.02544 -0.31653,0.51118 -0.65666,0.90529 -0.82014,0.9503 -0.35396,0.0975 -0.76649,-0.0304 -0.85671,-0.26552 -0.0383,-0.0997 -0.10992,-1.78735 -0.15927,-3.7504 -0.0791,-3.14732 -0.066,-3.59289 0.11115,-3.77003 0.13145,-0.13144 0.55244,-0.22799 1.21804,-0.27932 1.4069,-0.10849 2.33779,-0.48033 2.95343,-1.17974 0.59999,-0.68162 0.79668,-1.28817 0.79503,-2.4517 -0.004,-2.31406 -1.58232,-3.46235 -4.08353,-2.96959 -0.57052,0.1124 -1.36357,0.35373 -1.76233,0.53629 -0.39876,0.18256 -0.82936,0.33193 -0.95688,0.33193 -0.32646,0 -0.63494,-0.34692 -0.63494,-0.71407 0,-0.36958 2.14897,-5.592647 2.35709,-5.728907 0.0791,-0.0519 4.05006,-0.0951 8.82421,-0.0962 9.43339,-0.002 9.08339,-0.0286 9.08339,0.6881 0,0.37129 -0.17212,0.57131 -1.00299,1.16557 -1.50089,1.073497 -3.43759,3.760557 -3.33571,4.628107 0.0649,0.55317 0.28145,0.51029 0.9736,-0.19286 0.68483,-0.69574 1.12087,-0.82135 1.50781,-0.4344 0.20993,0.20992 0.21506,0.74509 0.0116,1.20834 -0.0722,0.16459 -0.0192,0.19277 0.28042,0.14879 0.57256,-0.0841 0.84692,0.26698 0.71963,0.9207 -0.32528,1.67065 0.13648,2.42397 1.59148,2.59629 0.81804,0.0969 1.70726,-0.27998 2.07193,-0.87812 0.32992,-0.54112 0.32851,-0.88156 -0.005,-1.30606 -0.30733,-0.39071 -0.70548,-0.43104 -1.23801,-0.12541 -0.49294,0.2829 -1.02963,0.15071 -1.13781,-0.28026 -0.15015,-0.59826 0.0706,-1.4557 0.5009,-1.94582 0.3975,-0.45272 1.23174,-0.92793 1.63891,-0.93356 0.11197,-0.002 0.44064,-0.22835 0.73041,-0.50399 1.3005,-1.23713 4.12253,-1.52014 5.75795,-0.57744 0.72181,0.41607 1.13478,1.28498 1.37327,2.88941 0.10085,0.6785 0.27861,1.41783 0.39503,1.64295 0.28841,0.55772 1.06285,1.39685 1.49579,1.62073 0.5725,0.29606 1.44707,0.23717 1.86859,-0.1258 0.34788,-0.29959 0.35986,-0.35094 0.35986,-1.54357 0,-1.34861 0.0893,-1.5266 0.72517,-1.44481 0.31071,0.04 0.33029,0.0172 0.22445,-0.26119 -0.16948,-0.44575 -0.14246,-0.75648 0.0856,-0.98453 0.34679,-0.34679 0.77859,-0.23474 1.47339,0.38235 0.36158,0.32114 0.72424,0.56058 0.80589,0.53209 0.30819,-0.10751 0.14002,-1.08788 -0.31126,-1.8145 -0.65349,-1.05222 -1.9889,-2.56656 -2.79965,-3.174797 -0.88162,-0.66141 -1.03726,-0.8427 -1.03726,-1.20821 0,-0.71639 -0.34426,-0.69007 9.02681,-0.69007 6.69944,0 8.67142,0.0358 8.8375,0.16032 0.25707,0.19278 2.40039,5.269427 2.40039,5.685537 0,0.35045 -0.31468,0.69528 -0.63449,0.69528 -0.12726,0 -0.5627,-0.14652 -0.96763,-0.3256 -0.85643,-0.37876 -2.11265,-0.69585 -2.76742,-0.69856 -0.68597,-0.003 -1.72246,0.34527 -2.18377,0.73344 -0.61642,0.51868 -0.87952,1.21715 -0.88282,2.34368 -0.004,1.10131 0.12808,1.65968 0.52722,2.24219 0.57725,0.84245 1.58616,1.30266 3.14458,1.43439 0.56133,0.0475 1.03969,0.1574 1.1456,0.26331 0.14839,0.14839 0.18183,0.85075 0.18183,3.81885 0,3.92201 -0.0204,4.04281 -0.68251,4.03816 -0.40345,-0.003 -0.48385,-0.0816 -1.24232,-1.21649 -1.04294,-1.56058 -2.16427,-2.61328 -3.4726,-3.26008 -1.85174,-0.91544 -3.10921,-0.72707 -3.63629,0.54473 -0.22336,0.53893 -0.23545,0.70106 -0.1079,1.44573 0.18495,1.07972 0.83269,2.43003 1.74693,3.64176 0.73736,0.97729 0.85182,1.32248 0.56498,1.70384 -0.31373,0.41709 -3.3719,2.9162 -3.6648,2.99484 -0.58819,0.15795 -0.85147,-0.11443 -1.28671,-1.33121 -0.65366,-1.82731 -1.47691,-2.95785 -2.74893,-3.77497 -1.15859,-0.74424 -2.17149,-0.43475 -2.33721,0.71414 -0.10603,0.73509 0.16476,1.52215 1.09555,3.18428 0.73905,1.31973 0.78493,1.44928 0.70414,1.98808 -0.0734,0.4896 -0.0435,0.62205 0.1988,0.87998 0.37778,0.40211 0.79793,0.52635 2.5554,0.75564 2.41119,0.31456 3.2975,0.89821 3.8671,2.54655 0.62534,1.80965 -0.13254,3.85679 -1.29164,3.4889 -0.14954,-0.0475 -0.2975,-0.23457 -0.3388,-0.42842 -0.38973,-1.82932 -1.66643,-3.01363 -2.83045,-2.62563 -0.58742,0.19582 -0.86974,0.70645 -0.87543,1.58345 -0.005,0.81723 -0.13385,1.01292 -0.66786,1.0167 -0.70405,0.005 -1.02627,-0.45314 -1.14977,-1.63461 l -0.0779,-0.74521 -0.41547,0.0485 c -0.32659,0.0381 -0.5178,-0.0414 -0.8939,-0.37157 l -0.47843,-0.42007 0.1894,0.44021 c 0.10418,0.24212 1.86969,4.15209 3.92335,8.68882 2.05366,4.53673 3.73394,8.35629 3.73394,8.4879 0,0.33435 -0.34419,0.64239 -0.71779,0.64239 -0.17308,0 -0.70282,-0.19534 -1.17722,-0.43408 -1.89604,-0.95423 -4.05625,-1.35893 -5.95436,-1.1155 -0.62904,0.0807 -1.66202,0.26601 -2.29552,0.41187 -0.6335,0.14586 -1.27941,0.23263 -1.43538,0.19283 -0.22953,-0.0586 -0.58703,-0.75835 -1.87607,-3.67229 -0.87587,-1.97996 -1.6313,-3.5547 -1.67872,-3.49943 -0.0474,0.0553 -0.77181,1.65135 -1.60973,3.54683 -1.10999,2.51094 -1.5984,3.48046 -1.79945,3.57207 -0.2017,0.0919 -0.72051,0.0292 -1.92808,-0.23314 -3.02186,-0.65643 -5.35669,-0.42047 -7.74607,0.78281 -0.97533,0.49116 -1.41319,0.55389 -1.7206,0.24648 z m 9.48409,-52.720832 c -0.11468,-0.114681 -0.19094,-0.33701 -0.16948,-0.49406 0.0215,-0.157051 1.13563,-2.430587 2.47593,-5.052297 2.55715,-5.001994 2.62616,-5.102792 3.29045,-4.806373 0.29972,0.133736 5.10312,9.424042 5.10764,9.878727 0.006,0.592751 -0.27206,0.682514 -2.11347,0.682514 -1.26629,0 -1.75737,-0.04503 -1.88264,-0.172643 -0.0932,-0.09495 -0.42666,-0.70097 -0.74096,-1.346704 -0.31432,-0.645735 -0.61197,-1.174063 -0.66147,-1.174063 -0.0495,0 -0.38311,0.57068 -0.74139,1.268176 -0.35828,0.697498 -0.74351,1.303515 -0.85606,1.346705 -0.11255,0.04319 -0.9461,0.07853 -1.85234,0.07853 -1.35024,0 -1.68533,-0.03765 -1.85621,-0.20851 z"
       style="fill:#ce5f05;stroke-width:0.12825759" />
    <path
       inkscape:connector-curvature="0"
       id="path36"
       d="m 50.597758,109.91099 c -0.514435,-0.55288 -1.998599,-3.67172 -2.541166,-5.34003 -1.056748,-3.24935 -1.489192,-6.50729 -1.378804,-10.387577 0.08289,-2.913682 0.359402,-4.764646 1.090762,-7.301538 0.756109,-2.622742 2.334847,-5.880653 3.405276,-7.027186 0.53112,-0.56888 0.937312,-0.575874 1.61728,-0.02785 0.820682,0.661418 2.573485,1.441777 3.643961,1.62231 2.345562,0.395571 4.111871,-0.785987 4.870816,-3.258289 0.34735,-1.131521 0.3093,-3.894191 -0.07486,-5.434832 -0.780516,-3.130236 -2.323865,-5.393302 -4.745471,-6.958461 -1.104363,-0.713787 -2.052679,-1.056111 -3.532525,-1.275181 -0.723911,-0.107162 -1.263549,-0.256091 -1.33461,-0.368319 -0.06754,-0.106675 -0.120192,-7.686215 -0.121361,-17.471503 -0.0019,-15.533891 0.01938,-17.304533 0.209821,-17.494975 0.220953,-0.220952 0.560777,-0.269116 0.921675,-0.130626 0.127368,0.04887 0.379125,0.626561 0.631698,1.449488 1.386401,4.517154 3.84187,9.191444 6.526904,12.424785 0.492672,0.593279 1.688003,1.942021 2.65629,2.997209 2.53082,2.757954 2.718725,3.069835 2.176318,3.612237 -0.240097,0.240096 -0.423802,0.226232 -1.643079,-0.124014 -1.978499,-0.56833 -3.631606,0.905328 -4.065388,3.624086 -0.372499,2.334663 0.618931,5.796294 2.358136,8.233577 1.899142,2.661407 4.783833,3.338243 6.49248,1.523327 1.398572,-1.48556 1.616653,-4.074351 0.59908,-7.111597 -0.478731,-1.428925 -0.490804,-1.536786 -0.204116,-1.823474 0.327112,-0.327112 0.81244,-0.25516 1.808151,0.268074 2.587158,1.359511 4.580209,3.930401 5.742928,7.407946 0.601908,1.800225 0.77872,3.50688 0.402307,3.883292 -0.280983,0.280984 -0.57371,0.28881 -1.188824,0.03182 -0.839797,-0.35089 -1.778764,0.08555 -2.241776,1.042006 -0.627483,1.296212 -0.235615,3.013201 0.861025,3.772628 1.05696,0.731951 3.283567,0.938164 5.163804,0.478234 1.229143,-0.300668 2.882665,-1.680173 4.410583,-3.679683 3.061139,-4.005945 3.57251,-9.877062 1.345173,-15.44412 -0.550247,-1.375296 -0.547018,-1.823941 0.01414,-1.964787 0.523268,-0.131333 0.908347,0.115457 1.74866,1.120662 2.317458,2.77221 3.840579,6.060288 4.45338,9.613865 0.294892,1.710014 0.331531,5.39457 0.07174,7.213724 -0.397496,2.783376 -1.8128,8.118591 -2.319853,8.745028 -0.230999,0.285393 -0.306439,0.289827 -6.066923,0.356408 l -5.833011,0.06742 -0.574977,0.94385 -0.574971,0.943854 5.794216,0.06742 c 6.175749,0.07186 6.046203,0.05659 6.051821,0.713261 0.0029,0.357809 -0.492863,1.263384 -0.744816,1.36007 -0.120464,0.04625 -2.899134,0.08404 -6.174819,0.08404 h -5.955789 l -0.577499,0.910143 -0.577494,0.910143 5.807712,0.06742 c 6.239494,0.07243 6.060189,0.05012 6.065334,0.754731 0.0019,0.29127 -1.030903,2.018397 -2.120705,3.545618 -2.939138,4.118831 -7.660421,8.563264 -12.574359,11.837023 -3.029258,2.018143 -3.7555,2.335813 -4.237704,1.853603 -0.3208,-0.3208 -0.272804,-0.51597 0.525088,-2.135275 2.193814,-4.452282 1.803608,-8.519457 -0.946439,-9.864931 -2.503114,-1.224661 -6.279664,1.024105 -9.29996,5.537709 -2.513362,3.756025 -3.919371,8.125717 -4.267034,13.261367 -0.111638,1.6491 -0.214029,2.3953 -0.346906,2.52818 -0.30174,0.30174 -0.824812,0.22238 -1.20133,-0.18228 z m 3.900523,-32.857718 c -2.954218,-0.71586 -3.970215,-4.416422 -1.792716,-6.52961 1.462475,-1.419284 4.001291,-1.466043 5.620566,-0.103518 0.634085,0.533554 1.148123,1.614325 1.225339,2.576325 0.155159,1.932934 -1.021161,3.540964 -2.969822,4.059746 -0.838825,0.223317 -1.151452,0.222873 -2.083367,-0.0029 z"
       style="fill:#fed800;stroke-width:0.13483605" />
    <path
       inkscape:connector-curvature="0"
       id="path825-7"
       d="m 38.374054,193.11371 c -3.474786,-0.18708 -6.763109,-1.19011 -8.71317,-2.65778 -0.996391,-0.74989 -1.273425,-1.18695 -0.954528,-1.50585 0.17692,-0.17692 0.404827,-0.15519 0.799792,0.0763 0.871179,0.51054 2.4783,1.00354 3.755496,1.15202 1.357097,0.15777 2.976482,-0.13149 4.196127,-0.74953 1.02506,-0.51945 1.933251,-1.5894 2.279536,-2.68557 0.501285,-1.58686 0.07451,-3.24267 -1.175217,-4.56009 -1.082935,-1.14154 -2.722623,-1.71031 -4.105348,-1.42405 -1.991135,0.41223 -2.936591,1.86477 -2.594291,3.98571 0.07498,0.46458 -0.04554,0.66653 -0.397796,0.66653 -0.536663,0 -1.754795,-1.93964 -2.385759,-3.79889 -0.25439,-0.74962 -0.290885,-0.95835 -0.321343,-1.83808 -0.05849,-1.6903 0.09944,-1.93024 1.02995,-1.56447 0.720193,0.2831 1.171301,0.32986 1.699819,0.17622 0.57979,-0.16855 1.066942,-0.62036 1.401398,-1.29973 0.226092,-0.45926 0.258018,-0.60293 0.258018,-1.16094 0,-0.55749 -0.02935,-0.6898 -0.235502,-1.06201 -0.576538,-1.04089 -2.10049,-1.82314 -3.11074,-1.59674 -0.805408,0.1805 -1.447168,0.63099 -1.946628,1.36649 -0.792799,1.16744 -1.499765,3.05661 -1.693337,4.52494 -0.05533,0.41947 -0.203772,0.61685 -0.462634,0.61503 -0.307973,-0.002 -0.385676,-0.12519 -0.575785,-0.91156 -0.293083,-1.21229 -0.356995,-1.7832 -0.404458,-3.61267 -0.04441,-1.7113 0.09702,-3.96303 0.295078,-4.69859 0.113031,-0.41974 0.341382,-0.46314 0.964789,-0.18338 0.284523,0.12769 0.68719,0.23421 0.971594,0.25705 0.564576,0.0453 1.585741,-0.14288 2.083981,-0.38407 0.459427,-0.22241 0.931071,-0.71556 1.189466,-1.2437 0.182558,-0.37314 0.216848,-0.5462 0.216848,-1.09454 0,-0.57496 -0.03041,-0.71304 -0.259162,-1.17775 -0.29772,-0.60476 -0.720321,-0.9751 -1.427754,-1.25121 -0.365411,-0.14263 -0.61904,-0.17633 -1.365347,-0.18146 -0.910227,-0.006 -0.920953,-0.004 -1.548184,0.30366 -1.033045,0.50695 -2.32093,1.9337 -3.052709,3.38188 -0.09929,0.1965 -0.220386,0.38351 -0.269106,0.4156 -0.154473,0.10171 -0.429737,0.0655 -0.570245,-0.075 -0.116366,-0.11636 -0.12905,-0.24387 -0.08887,-0.89318 0.145198,-2.34648 0.992266,-4.74655 2.457938,-6.96433 0.983217,-1.48775 1.244382,-1.6399 1.781361,-1.0378 0.940548,1.05461 1.393915,1.28222 2.56365,1.28704 0.678097,0.003 0.790774,-0.0184 1.116084,-0.20961 0.781139,-0.45924 1.419413,-1.42998 1.488632,-2.26408 0.07332,-0.88341 -0.803986,-2.09722 -1.907875,-2.63968 -1.223356,-0.60116 -2.934828,-0.34762 -4.729761,0.70068 -0.7477,0.43668 -1.265829,0.84959 -2.168521,1.72811 -0.796126,0.77481 -1.028008,0.88538 -1.295601,0.61778 -0.175181,-0.17518 -0.158319,-0.32915 0.118142,-1.07897 0.349776,-0.94863 0.795622,-1.87095 1.227971,-2.54032 0.915031,-1.41662 2.86887,-3.48207 4.040156,-4.27092 1.103099,-0.74295 3.308377,-1.667 3.727348,-1.56184 0.273473,0.0686 0.297526,0.19852 0.197238,1.06513 -0.108077,0.93399 -0.0079,1.55336 0.313017,1.93471 0.531386,0.63152 1.899512,0.88223 2.957676,0.54199 0.727278,-0.23386 1.093133,-0.50762 1.386096,-1.03719 0.224119,-0.40512 0.238182,-0.48212 0.238182,-1.30387 0,-0.79677 -0.02025,-0.9172 -0.230971,-1.37356 -0.28557,-0.61845 -0.77112,-1.07148 -1.611962,-1.50398 -1.016181,-0.5227 -2.739118,-1.01362 -4.267045,-1.21582 -0.902842,-0.1195 -2.624581,-0.0606 -3.625624,0.12405 -0.87197,0.16083 -1.156532,0.12495 -1.226707,-0.15466 -0.07885,-0.31413 0.01995,-0.45588 0.691677,-0.99283 0.987742,-0.78949 2.072584,-1.47479 3.204575,-2.0243 2.060224,-1.00012 3.09378,-1.28081 5.173839,-1.40505 2.190618,-0.13085 4.498583,0.0902 4.766414,0.45645 0.145672,0.19922 0.127416,0.50638 -0.04712,0.79258 -0.08227,0.13492 -0.229538,0.46459 -0.327257,0.7326 -0.316905,0.86914 -0.132745,1.63062 0.563376,2.32956 0.516869,0.51895 0.945956,0.71923 1.637666,0.76441 1.43173,0.0935 2.686125,-0.67712 3.002056,-1.84426 0.198379,-0.73285 0.130064,-2.12888 -0.150466,-3.07473 -0.266198,-0.89757 -0.739696,-1.98915 -1.078978,-2.48742 -1.058177,-1.5541 -3.430346,-2.94328 -5.886023,-3.44695 -0.738327,-0.15144 -0.86195,-0.22825 -0.864118,-0.53692 -0.0023,-0.29228 0.195145,-0.3964 0.926249,-0.48907 2.902737,-0.36794 5.453541,-0.29457 8.025462,0.2308 1.826514,0.37311 3.459946,1.18595 4.92147,2.44906 0.583632,0.5044 0.711063,0.72395 0.623249,1.07382 -0.04071,0.16231 -0.154959,0.22628 -0.703304,0.39381 -1.306711,0.39925 -1.909989,1.01405 -2.117403,2.15783 -0.209494,1.15533 0.290191,2.18655 1.288236,2.65855 1.916911,0.90656 4.486525,-0.49751 5.499308,-3.0049 0.657195,-1.62704 0.741971,-3.69089 0.224899,-5.47519 -0.401113,-1.38415 -0.801348,-1.99142 -2.48483,-3.77013 -0.918737,-0.97072 -1.024857,-1.17666 -0.748633,-1.45287 0.201377,-0.20138 0.532461,-0.11084 1.713861,0.46866 2.224791,1.0913 4.575989,2.75643 6.398286,4.53128 0.49563,0.48272 1.076637,1.1099 1.291136,1.39373 1.020973,1.35097 2.145003,4.28661 1.82397,4.76363 -0.06208,0.0922 -0.33595,0.13042 -1.214558,0.16931 -1.349157,0.0597 -1.769631,0.18387 -2.250043,0.66428 -0.678409,0.6784 -0.94117,2.08164 -0.600085,3.20459 0.230684,0.75949 0.568487,1.18023 1.203184,1.49863 0.987758,0.4955 2.148846,0.50129 3.148337,0.0158 1.079798,-0.52458 2.260102,-2.47651 2.831586,-4.68275 0.498718,-1.92532 0.476155,-3.45871 -0.08052,-5.47378 -0.114732,-0.4153 -0.224736,-0.86541 -0.244455,-1.00025 -0.04339,-0.29651 0.137547,-0.50907 0.433238,-0.50907 0.761503,0 3.325998,4.30578 4.266169,7.16286 0.635257,1.9305 0.712119,2.43643 0.715044,4.70652 0.0016,1.09167 -0.02478,2.08255 -0.05817,2.20197 -0.08576,0.30649 -0.367849,0.35611 -0.848626,0.14929 -0.725567,-0.31213 -1.370688,-0.41885 -1.968115,-0.32558 -1.149811,0.17951 -1.946983,0.83107 -2.254163,1.8424 -0.475066,1.56403 0.44472,2.94896 2.159068,3.25094 0.995884,0.17543 1.781477,-0.19218 2.978502,-1.39373 0.960345,-0.96398 1.664965,-1.99241 1.99617,-2.91354 0.194902,-0.54204 0.571753,-1.94725 0.780361,-2.90978 0.04233,-0.19531 0.325705,-0.304 0.581162,-0.22291 0.199947,0.0635 0.295959,0.36598 0.40424,1.27366 0.235965,1.97816 0.168106,4.94096 -0.156405,6.82788 -0.16713,0.97188 -0.507631,2.17412 -0.85446,3.01696 -0.311608,0.75726 -0.40485,0.78473 -1.463345,0.4312 -1.030065,-0.34402 -1.57373,-0.35898 -2.216202,-0.0609 -1.23128,0.57116 -1.701942,1.60866 -1.262374,2.78269 0.208901,0.55797 0.528991,0.93047 1.045202,1.2164 0.405094,0.22438 0.470223,0.23551 1.377919,0.23551 0.951667,0 0.95343,-2.8e-4 1.587875,-0.31631 1.191654,-0.59343 2.696444,-2.35421 3.851885,-4.50712 0.34068,-0.63478 0.516057,-0.76773 0.866136,-0.65662 0.252256,0.08 0.265475,0.31061 0.08544,1.4907 -0.720244,4.72129 -2.877841,9.62768 -6.189685,14.07535 -1.904993,2.55833 -3.879031,4.5417 -8.358373,8.39791 -0.798358,0.68729 -1.230784,1.00728 -1.36123,1.00728 -0.281554,0 -5.429264,-1.71913 -6.995974,-2.33637 -2.433666,-0.9588 -5.369642,-2.5127 -6.915251,-3.65997 -0.797716,-0.59212 -3.118934,-2.90913 -3.696423,-3.68972 -1.315893,-1.77867 -1.868268,-3.31214 -2.05662,-5.70942 -0.294977,-3.75422 0.795164,-6.69341 3.194617,-8.61321 2.165519,-1.73264 5.118703,-2.196 7.290357,-1.14389 1.007388,0.48806 1.971332,1.69441 2.430238,3.04139 0.176847,0.51907 0.222835,0.8171 0.251638,1.63073 0.04087,1.15512 -0.06362,1.6987 -0.495549,2.57715 -0.339152,0.68979 -1.113785,1.54871 -1.395152,1.54696 -0.395815,-0.002 -0.430866,-0.085 -0.478592,-1.12711 -0.03868,-0.84475 -0.07369,-1.03612 -0.261234,-1.42672 -0.405126,-0.8439 -1.095064,-1.26074 -2.184832,-1.32002 -2.482473,-0.13503 -4.024142,1.65064 -3.676889,4.25883 0.18134,1.362 0.538643,2.03123 1.477229,2.7669 1.387417,1.08745 3.391339,1.65669 5.109856,1.45149 1.747384,-0.20862 3.061416,-0.89688 4.439278,-2.32517 1.29298,-1.3403 2.050364,-2.78929 2.414354,-4.6191 0.165131,-0.83017 0.143243,-2.92303 -0.03949,-3.77121 -0.476885,-2.21402 -1.534624,-4.18855 -3.063569,-5.71896 -1.213299,-1.21444 -2.317602,-1.91252 -3.812796,-2.41023 -2.383674,-0.79346 -4.783436,-0.49931 -7.578557,0.92892 -2.538097,1.2969 -5.091079,3.59023 -6.194374,5.56435 -0.390006,0.69782 -1.28085,2.67341 -1.561096,3.46198 -0.458612,1.29044 -0.554828,1.8825 -0.600718,3.69672 -0.04753,1.878 0.01991,2.59327 0.373894,3.96612 0.34245,1.32816 0.807417,2.53575 1.589086,4.12715 1.008282,2.05274 1.993489,3.56399 3.316833,5.0878 0.517031,0.59537 2.892296,2.70549 4.462216,3.96413 1.697505,1.36094 3.41568,2.31215 5.874478,3.25222 0.763794,0.29202 1.415269,0.57268 1.44772,0.62369 0.160874,0.25288 0.05468,0.54613 -0.355386,0.98094 -1.733287,1.83806 -4.865334,3.50125 -8.194883,4.35167 -2.204324,0.56301 -3.994299,0.7287 -6.446117,0.59672 z"
       style="fill:#49007f;stroke-width:0.07939385" />
  </g>
</svg>
